PathFileType	4	(X/Y/Z)	C:/Users/opensim2020/Desktop/walking_exp_matlab/subject02_walking04_straight_02.trc																																																																																																																												
DataRate	CameraRate	NumFrames	NumMarkers	Units	OrigDataRate	OrigDataStartFrame	OrigNumFrames																																																																																																																								
100	100	4	42	mm	100	1551	220																																																																																																																								
Frame#	Time	LFHD			RFHD			LBHD			RBHD			C7			T10			CLAV			STRN			RBAK			LSHO			LUPA			LELB			LFRM			LWRA			LWRB			LFIN			RSHO			RUPA			RELB			RFRM			RWRA			RWRB			RFIN			LASI			RASI			LPSI			RPSI			LTHI			LKNE			LTIB			LANK			LHEE			LTOE			RTHI			RKNE			RTIB			RANK			RHEE			RTOE			*39			*40			*41		
		X1	Y1	Z1	X2	Y2	Z2	X3	Y3	Z3	X4	Y4	Z4	X5	Y5	Z5	X6	Y6	Z6	X7	Y7	Z7	X8	Y8	Z8	X9	Y9	Z9	X10	Y10	Z10	X11	Y11	Z11	X12	Y12	Z12	X13	Y13	Z13	X14	Y14	Z14	X15	Y15	Z15	X16	Y16	Z16	X17	Y17	Z17	X18	Y18	Z18	X19	Y19	Z19	X20	Y20	Z20	X21	Y21	Z21	X22	Y22	Z22	X23	Y23	Z23	X24	Y24	Z24	X25	Y25	Z25	X26	Y26	Z26	X27	Y27	Z27	X28	Y28	Z28	X29	Y29	Z29	X30	Y30	Z30	X31	Y31	Z31	X32	Y32	Z32	X33	Y33	Z33	X34	Y34	Z34	X35	Y35	Z35	X36	Y36	Z36	X37	Y37	Z37	X38	Y38	Z38	X39	Y39	Z39	X40	Y40	Z40	X41	Y41	Z41	X42	Y42	Z42
																																																																																																																															
56	0.55	-617.52386	1718.06348	-1499.58911	-627.68188	1700.10449	-1356.91675	-750.43079	1648.66382	-1515.58459	-772.74591	1630.70654	-1375.18994	-816.91656	1511.29297	-1437.26318	-877.80365	1235.51514	-1426.22205	-677.25299	1437.97144	-1453.25195	-629.81494	1267.57434	-1434.31873	-876.65247	1341.37134	-1362.33032	-757.08948	1475.65076	-1618.802	-830.03375	1287.25122	-1689.05347	-870.44995	1151.74048	-1691.44434	-902.28729	1023.25055	-1700.98926	-886.78607	885.48022	-1664.61621	-928.63263	902.0968	-1700.16699	-936.02832	833.70959	-1693.95447	-730.99896	1485.1936	-1256.06152	-721.12616	1301.50452	-1156.75391	-667.97791	1163.94946	-1127.47388	-592.46667	1067.75159	-1115.95813	-498.72076	974.16235	-1143.89282	-535.47235	950.91193	-1106.59912	-473.38898	914.87372	-1108.61145	-624.98743	979.19135	-1546.28027	-650.40955	958.72791	-1287.41479	-845.28052	1013.31378	-1484.35791	-859.46875	1013.63428	-1371.6145	-622.05304	679.61029	-1622.96191	-596.13538	479.83276	-1599.22766	-600.08185	284.81204	-1606.77051	-534.94116	71.22769	-1590.68884	-562.05273	37.38633	-1540.06763	-377.81122	61.12311	-1599.13953	-790.83301	663.34106	-1234.73816	-840.26617	458.60031	-1269.79749	-953.46912	305.14569	-1268.04175	-1045.6521	133.90047	-1304.09119	-1095.2583	92.46524	-1360.54102	-914.63544	40.91256	-1293.40564	-721.79065	1788.51794	-1416.00659	-2845.03394	1033.85498	3360.27612	NaN	NaN	NaN
57	0.56	-608.24426	1718.16272	-1502.53809	-618.64532	1700.1488	-1359.98096	-741.00452	1648.47327	-1518.77197	-763.53735	1630.22266	-1378.43469	-807.89874	1510.46118	-1440.92944	-867.46356	1234.81775	-1430.26758	-667.64502	1437.74573	-1456.44189	-619.78906	1267.80188	-1437.60889	-866.97839	1340.36597	-1366.49731	-747.07098	1474.95715	-1622.3324	-818.98877	1285.78711	-1692.5	-859.03217	1150.42151	-1694.84998	-890.89221	1022.02838	-1704.42053	-875.94196	884.42603	-1667.97913	-917.38629	900.93683	-1703.67688	-925.0188	832.63031	-1697.47302	-722.36511	1484.4873	-1259.27539	-712.74097	1300.604	-1159.9292	-659.54218	1163.03894	-1130.34192	-583.29565	1067.33936	-1118.95959	-488.92816	974.32269	-1146.70105	-525.63641	950.7135	-1109.76611	-463.33856	915.10577	-1111.65576	-613.15265	979.42297	-1549.63684	-639.11212	958.18463	-1290.97986	-833.51575	1012.14948	-1488.68103	-848.46478	1012.15033	-1376.06335	-611.68268	680.25891	-1626.32471	-587.17639	479.84012	-1602.75696	-591.52002	284.72012	-1607.03101	-529.67365	70.39534	-1593.87537	-558.71808	38.46725	-1542.89087	-372.29294	55.45162	-1597.38647	-780.68567	663.3042	-1236.51831	-830.37061	458.85034	-1269.87598	-946.90411	307.92468	-1268.39124	-1042.31824	138.5775	-1303.51929	-1092.4491	98.63056	-1360.04138	-914.05615	41.02599	-1293.05127	-712.80792	1788.20288	-1418.89294	-2845.15674	1033.80566	3360.25098	NaN	NaN	NaN
58	0.57	-599.08185	1718.43262	-1505.36975	-609.66333	1700.15967	-1362.90552	-731.61365	1648.62195	-1521.995	-754.38245	1630.11121	-1381.66516	-798.63678	1510.18176	-1444.64209	-857.11169	1234.16272	-1434.00293	-658.20056	1437.85645	-1459.58984	-609.74054	1268.06421	-1440.73901	-857.44885	1339.56274	-1370.57397	-737.0354	1474.50708	-1625.70911	-807.92328	1284.77515	-1696.55872	-847.17627	1149.06555	-1698.33142	-878.95374	1020.79639	-1708.04761	-864.27142	883.25763	-1671.5802	-905.51843	899.67932	-1707.23108	-913.25427	831.55103	-1701.32434	-713.49518	1483.88977	-1262.13135	-704.9505	1299.63416	-1163.49548	-650.91974	1162.06958	-1133.7887	-574.33118	1066.75293	-1121.78589	-479.63556	974.44373	-1149.59937	-516.37549	950.46729	-1112.95142	-453.91275	915.20575	-1114.65332	-601.55548	979.7746	-1552.81445	-627.47247	957.78308	-1294.59595	-821.91327	1011.65991	-1492.91248	-837.46912	1010.73846	-1380.42371	-601.87958	680.90063	-1630.12939	-577.07428	480.72906	-1606.4281	-583.47394	286.00854	-1610.66687	-525.13171	69.62962	-1596.34656	-556.81616	39.92954	-1545.69983	-368.3725	49.10889	-1596.0592	-769.94171	663.47107	-1238.3905	-819.9375	459.48068	-1269.1167	-939.55945	311.1492	-1268.43689	-1038.39636	143.87503	-1302.87622	-1088.85449	105.52045	-1359.66199	-913.31665	41.29905	-1292.74707	-703.83588	1788.21448	-1421.89673	-2845.77075	1033.85193	3357.41919	NaN	NaN	NaN
59	0.58	-589.73145	1718.77002	-1508.30676	-600.56146	1700.09778	-1365.70874	-722.24847	1648.91016	-1525.25183	-745.20563	1630.15784	-1384.93616	-789.12915	1510.34009	-1448.36487	-846.82391	1233.73193	-1437.51196	-648.76758	1438.1864	-1462.8385	-599.76837	1268.56641	-1443.89783	-847.72131	1338.90381	-1374.24939	-727.14459	1474.30383	-1629.4895	-796.29681	1283.52905	-1700.10034	-834.72064	1147.63879	-1701.63464	-866.32123	1019.52289	-1711.48364	-851.95392	882.01917	-1675.17493	-893.10175	898.7403	-1711.21338	-900.72931	830.58441	-1705.47791	-704.87207	1483.77417	-1265.21436	-696.00043	1298.95178	-1166.46289	-642.97382	1161.64551	-1136.57056	-566.09485	1066.28308	-1125.07434	-470.9512	974.59827	-1152.71313	-508.1817	950.32159	-1116.44812	-445.11023	915.24091	-1117.67065	-589.68726	980.59473	-1556.52661	-615.75806	957.68884	-1298.18835	-810.49475	1011.92139	-1496.95605	-826.33093	1009.69525	-1384.53564	-592.60535	681.67743	-1634.18091	-566.4892	481.90198	-1609.61255	-575.24237	287.81451	-1617.21216	-523.2561	69.65242	-1597.46899	-556.14362	40.46952	-1546.95081	-366.55997	45.10729	-1596.56641	-758.58594	663.91211	-1240.38159	-807.6615	460.10959	-1268.97705	-931.4267	314.98288	-1268.05786	-1034.01843	149.91147	-1302.30017	-1084.29224	112.99428	-1359.42163	-912.68268	41.57488	-1292.29956	-694.89862	1788.46936	-1425.08411	-2845.85376	1033.83923	3357.29932	NaN	NaN	NaN
